<svg width="543" height="543" viewBox="0 0 543 543" fill="none" xmlns="http://www.w3.org/2000/svg">
<path d="M176 293C153.909 293 136 275.091 136 253C136 230.909 153.909 213 176 213H347.5C355.237 213 359.879 215.197 366 219H381.579C372.448 209.159 361.984 203 347.5 203H176C148.386 203 126 225.386 126 253C126 280.614 148.386 303 176 303H329V293H176Z" fill="#CE0B3A"/>
<mask id="path-2-outside-1_9_203" maskUnits="userSpaceOnUse" x="167.5" y="231" width="155" height="43" fill="black">
<rect fill="white" x="167.5" y="231" width="155" height="43"/>
<path d="M209.282 249.347L194.562 255.747L202.669 269.613L200.749 271L190.082 259.16L179.415 271L177.495 269.613L185.602 255.747L170.989 249.347L171.735 247.107L187.309 250.52L188.909 234.627H191.255L192.855 250.52L208.535 247.107L209.282 249.347ZM264.17 249.347L249.45 255.747L257.556 269.613L255.636 271L244.97 259.16L234.303 271L232.383 269.613L240.49 255.747L225.876 249.347L226.623 247.107L242.196 250.52L243.796 234.627H246.143L247.743 250.52L263.423 247.107L264.17 249.347ZM319.057 249.347L304.337 255.747L312.444 269.613L310.524 271L299.857 259.16L289.19 271L287.27 269.613L295.377 255.747L280.764 249.347L281.51 247.107L297.084 250.52L298.684 234.627H301.03L302.63 250.52L318.31 247.107L319.057 249.347Z"/>
</mask>
<path d="M209.282 249.347L194.562 255.747L202.669 269.613L200.749 271L190.082 259.16L179.415 271L177.495 269.613L185.602 255.747L170.989 249.347L171.735 247.107L187.309 250.52L188.909 234.627H191.255L192.855 250.52L208.535 247.107L209.282 249.347ZM264.17 249.347L249.45 255.747L257.556 269.613L255.636 271L244.97 259.16L234.303 271L232.383 269.613L240.49 255.747L225.876 249.347L226.623 247.107L242.196 250.52L243.796 234.627H246.143L247.743 250.52L263.423 247.107L264.17 249.347ZM319.057 249.347L304.337 255.747L312.444 269.613L310.524 271L299.857 259.16L289.19 271L287.27 269.613L295.377 255.747L280.764 249.347L281.51 247.107L297.084 250.52L298.684 234.627H301.03L302.63 250.52L318.31 247.107L319.057 249.347Z" fill="#CE0B3A"/>
<path d="M209.282 249.347L210.478 252.098C211.904 251.478 212.62 249.872 212.128 248.398L209.282 249.347ZM194.562 255.747L193.366 252.995C192.579 253.337 191.977 254 191.71 254.815C191.444 255.63 191.539 256.52 191.972 257.261L194.562 255.747ZM202.669 269.613L204.425 272.045C205.678 271.141 206.038 269.433 205.259 268.099L202.669 269.613ZM200.749 271L198.52 273.008C199.545 274.146 201.263 274.329 202.505 273.432L200.749 271ZM190.082 259.16L192.311 257.152C191.742 256.521 190.932 256.16 190.082 256.16C189.232 256.16 188.422 256.521 187.853 257.152L190.082 259.16ZM179.415 271L177.659 273.432C178.901 274.329 180.619 274.146 181.644 273.008L179.415 271ZM177.495 269.613L174.906 268.099C174.126 269.433 174.486 271.141 175.739 272.045L177.495 269.613ZM185.602 255.747L188.192 257.261C188.624 256.522 188.72 255.633 188.455 254.819C188.19 254.004 187.59 253.342 186.806 252.999L185.602 255.747ZM170.989 249.347L168.143 248.398C167.652 249.87 168.364 251.472 169.785 252.095L170.989 249.347ZM171.735 247.107L172.378 244.176C170.879 243.848 169.374 244.703 168.889 246.158L171.735 247.107ZM187.309 250.52L186.666 253.45C187.502 253.634 188.377 253.451 189.07 252.949C189.763 252.446 190.208 251.672 190.294 250.82L187.309 250.52ZM188.909 234.627V231.627C187.368 231.627 186.078 232.793 185.924 234.326L188.909 234.627ZM191.255 234.627L194.24 234.326C194.086 232.793 192.796 231.627 191.255 231.627V234.627ZM192.855 250.52L189.871 250.82C189.956 251.671 190.401 252.445 191.093 252.948C191.785 253.45 192.658 253.633 193.494 253.451L192.855 250.52ZM208.535 247.107L211.381 246.158C210.897 244.704 209.395 243.849 207.897 244.175L208.535 247.107ZM208.086 246.595L193.366 252.995L195.758 258.498L210.478 252.098L208.086 246.595ZM191.972 257.261L200.079 271.127L205.259 268.099L197.152 254.233L191.972 257.261ZM200.912 267.181L198.992 268.568L202.505 273.432L204.425 272.045L200.912 267.181ZM202.978 268.992L192.311 257.152L187.853 261.168L198.52 273.008L202.978 268.992ZM187.853 257.152L177.187 268.992L181.644 273.008L192.311 261.168L187.853 257.152ZM181.172 268.568L179.252 267.181L175.739 272.045L177.659 273.432L181.172 268.568ZM180.085 271.127L188.192 257.261L183.012 254.233L174.906 268.099L180.085 271.127ZM186.806 252.999L172.192 246.599L169.785 252.095L184.399 258.495L186.806 252.999ZM173.835 250.295L174.581 248.055L168.889 246.158L168.143 248.398L173.835 250.295ZM171.093 250.037L186.666 253.45L187.951 247.59L172.378 244.176L171.093 250.037ZM190.294 250.82L191.894 234.927L185.924 234.326L184.324 250.219L190.294 250.82ZM188.909 237.627H191.255V231.627H188.909V237.627ZM188.271 234.927L189.871 250.82L195.84 250.219L194.24 234.326L188.271 234.927ZM193.494 253.451L209.174 250.038L207.897 244.175L192.217 247.589L193.494 253.451ZM205.689 248.055L206.436 250.295L212.128 248.398L211.381 246.158L205.689 248.055ZM264.17 249.347L265.366 252.098C266.791 251.478 267.507 249.872 267.016 248.398L264.17 249.347ZM249.45 255.747L248.253 252.995C247.467 253.337 246.864 254 246.598 254.815C246.332 255.63 246.427 256.52 246.86 257.261L249.45 255.747ZM257.556 269.613L259.313 272.045C260.565 271.141 260.926 269.433 260.146 268.099L257.556 269.613ZM255.636 271L253.407 273.008C254.433 274.146 256.151 274.329 257.393 273.432L255.636 271ZM244.97 259.16L247.198 257.152C246.63 256.521 245.82 256.16 244.97 256.16C244.12 256.16 243.31 256.521 242.741 257.152L244.97 259.16ZM234.303 271L232.546 273.432C233.788 274.329 235.506 274.146 236.532 273.008L234.303 271ZM232.383 269.613L229.793 268.099C229.013 269.433 229.374 271.141 230.626 272.045L232.383 269.613ZM240.49 255.747L243.079 257.261C243.512 256.522 243.607 255.633 243.342 254.819C243.078 254.004 242.477 253.342 241.693 252.999L240.49 255.747ZM225.876 249.347L223.03 248.398C222.54 249.87 223.252 251.472 224.673 252.095L225.876 249.347ZM226.623 247.107L227.265 244.176C225.767 243.848 224.262 244.703 223.777 246.158L226.623 247.107ZM242.196 250.52L241.554 253.45C242.39 253.634 243.264 253.451 243.957 252.949C244.65 252.446 245.095 251.672 245.181 250.82L242.196 250.52ZM243.796 234.627V231.627C242.256 231.627 240.966 232.793 240.811 234.326L243.796 234.627ZM246.143 234.627L249.128 234.326C248.974 232.793 247.683 231.627 246.143 231.627V234.627ZM247.743 250.52L244.758 250.82C244.844 251.671 245.288 252.445 245.98 252.948C246.672 253.45 247.546 253.633 248.381 253.451L247.743 250.52ZM263.423 247.107L266.269 246.158C265.784 244.704 264.282 243.849 262.785 244.175L263.423 247.107ZM262.973 246.595L248.253 252.995L250.646 258.498L265.366 252.098L262.973 246.595ZM246.86 257.261L254.966 271.127L260.146 268.099L252.039 254.233L246.86 257.261ZM255.8 267.181L253.88 268.568L257.393 273.432L259.313 272.045L255.8 267.181ZM257.865 268.992L247.198 257.152L242.741 261.168L253.407 273.008L257.865 268.992ZM242.741 257.152L232.074 268.992L236.532 273.008L247.198 261.168L242.741 257.152ZM236.059 268.568L234.139 267.181L230.626 272.045L232.546 273.432L236.059 268.568ZM234.973 271.127L243.079 257.261L237.9 254.233L229.793 268.099L234.973 271.127ZM241.693 252.999L227.08 246.599L224.673 252.095L239.286 258.495L241.693 252.999ZM228.722 250.295L229.469 248.055L223.777 246.158L223.03 248.398L228.722 250.295ZM225.981 250.037L241.554 253.45L242.839 247.59L227.265 244.176L225.981 250.037ZM245.181 250.82L246.781 234.927L240.811 234.326L239.211 250.219L245.181 250.82ZM243.796 237.627H246.143V231.627H243.796V237.627ZM243.158 234.927L244.758 250.82L250.728 250.219L249.128 234.326L243.158 234.927ZM248.381 253.451L264.061 250.038L262.785 244.175L247.105 247.589L248.381 253.451ZM260.577 248.055L261.324 250.295L267.016 248.398L266.269 246.158L260.577 248.055ZM319.057 249.347L320.253 252.098C321.679 251.478 322.395 249.872 321.903 248.398L319.057 249.347ZM304.337 255.747L303.141 252.995C302.354 253.337 301.752 254 301.485 254.815C301.219 255.63 301.314 256.52 301.747 257.261L304.337 255.747ZM312.444 269.613L314.2 272.045C315.453 271.141 315.813 269.433 315.034 268.099L312.444 269.613ZM310.524 271L308.295 273.008C309.32 274.146 311.038 274.329 312.28 273.432L310.524 271ZM299.857 259.16L302.086 257.152C301.517 256.521 300.707 256.16 299.857 256.16C299.007 256.16 298.197 256.521 297.628 257.152L299.857 259.16ZM289.19 271L287.434 273.432C288.676 274.329 290.394 274.146 291.419 273.008L289.19 271ZM287.27 269.613L284.681 268.099C283.901 269.433 284.261 271.141 285.514 272.045L287.27 269.613ZM295.377 255.747L297.967 257.261C298.399 256.522 298.495 255.633 298.23 254.819C297.965 254.004 297.365 253.342 296.581 252.999L295.377 255.747ZM280.764 249.347L277.918 248.398C277.427 249.87 278.139 251.472 279.56 252.095L280.764 249.347ZM281.51 247.107L282.153 244.176C280.654 243.848 279.149 244.703 278.664 246.158L281.51 247.107ZM297.084 250.52L296.441 253.45C297.277 253.634 298.152 253.451 298.845 252.949C299.538 252.446 299.983 251.672 300.069 250.82L297.084 250.52ZM298.684 234.627V231.627C297.143 231.627 295.853 232.793 295.699 234.326L298.684 234.627ZM301.03 234.627L304.015 234.326C303.861 232.793 302.571 231.627 301.03 231.627V234.627ZM302.63 250.52L299.646 250.82C299.731 251.671 300.176 252.445 300.868 252.948C301.56 253.45 302.433 253.633 303.269 253.451L302.63 250.52ZM318.31 247.107L321.156 246.158C320.672 244.704 319.17 243.849 317.672 244.175L318.31 247.107ZM317.861 246.595L303.141 252.995L305.533 258.498L320.253 252.098L317.861 246.595ZM301.747 257.261L309.854 271.127L315.034 268.099L306.927 254.233L301.747 257.261ZM310.687 267.181L308.767 268.568L312.28 273.432L314.2 272.045L310.687 267.181ZM312.753 268.992L302.086 257.152L297.628 261.168L308.295 273.008L312.753 268.992ZM297.628 257.152L286.962 268.992L291.419 273.008L302.086 261.168L297.628 257.152ZM290.947 268.568L289.027 267.181L285.514 272.045L287.434 273.432L290.947 268.568ZM289.86 271.127L297.967 257.261L292.787 254.233L284.681 268.099L289.86 271.127ZM296.581 252.999L281.967 246.599L279.56 252.095L294.174 258.495L296.581 252.999ZM283.61 250.295L284.356 248.055L278.664 246.158L277.918 248.398L283.61 250.295ZM280.868 250.037L296.441 253.45L297.726 247.59L282.153 244.176L280.868 250.037ZM300.069 250.82L301.669 234.927L295.699 234.326L294.099 250.219L300.069 250.82ZM298.684 237.627H301.03V231.627H298.684V237.627ZM298.046 234.927L299.646 250.82L305.615 250.219L304.015 234.326L298.046 234.927ZM303.269 253.451L318.949 250.038L317.672 244.175L301.992 247.589L303.269 253.451ZM315.464 248.055L316.211 250.295L321.903 248.398L321.156 246.158L315.464 248.055Z" fill="#CE0B3A" mask="url(#path-2-outside-1_9_203)"/>
<mask id="path-4-inside-2_9_203" fill="white">
<rect x="341.5" y="263" width="76" height="63" rx="7"/>
</mask>
<rect x="341.5" y="263" width="76" height="63" rx="7" stroke="#CE0B3A" stroke-width="20" mask="url(#path-4-inside-2_9_203)"/>
<path d="M374.566 232H382.434C390.755 232 397.5 238.745 397.5 247.066V267.375H359.5V247.066C359.5 238.745 366.245 232 374.566 232Z" stroke="#CE0B3A" stroke-width="8"/>
</svg>
