<svg width="1325" height="250" viewBox="0 0 1325 250" fill="none" xmlns="http://www.w3.org/2000/svg">
<rect width="1325" height="250" fill="white"/>
<circle cx="183" cy="125" r="30" fill="#FFFFFD"/>
<circle cx="543" cy="125" r="30" fill="#FFFFFD"/>
<circle cx="903" cy="125" r="30" fill="#FFFFFD"/>
<circle cx="303" cy="125" r="30" fill="#FFFFFD"/>
<circle cx="663" cy="125" r="30" fill="#FFFFFD"/>
<circle cx="1023" cy="125" r="30" fill="#FFFFFD"/>
<circle cx="423" cy="125" r="30" fill="#FFFFFD"/>
<circle cx="783" cy="125" r="30" fill="#FFFFFD"/>
<circle cx="1143" cy="125" r="30" fill="#FFFFFD"/>
<circle cx="1203" cy="125" r="30" fill="#FFFFFD"/>
<circle cx="123" cy="125" r="30" fill="#FFFFFD"/>
<circle cx="483" cy="125" r="30" fill="#FFFFFD"/>
<circle cx="843" cy="125" r="30" fill="#FFFFFD"/>
<circle cx="243" cy="125" r="30" fill="#FFFFFD"/>
<circle cx="603" cy="125" r="30" fill="#FFFFFD"/>
<circle cx="963" cy="125" r="30" fill="#FFFFFD"/>
<circle cx="363" cy="125" r="30" fill="#FFFFFD"/>
<circle cx="723" cy="125" r="30" fill="#FFFFFD"/>
<circle cx="1083" cy="125" r="30" fill="#FFFFFD"/>
</svg>
