<svg width="1325" height="250" viewBox="0 0 1325 250" fill="none" xmlns="http://www.w3.org/2000/svg">
<rect width="1325" height="250" fill="white"/>
<circle cx="198" cy="95" r="30" fill="#E5E5FF"/>
<circle cx="558" cy="95" r="30" fill="#E5E5FF"/>
<circle cx="918" cy="95" r="30" fill="#E5E5FF"/>
<circle cx="318" cy="95" r="30" fill="#E5E5FF"/>
<circle cx="678" cy="95" r="30" fill="#E5E5FF"/>
<circle cx="1038" cy="95" r="30" fill="#E5E5FF"/>
<circle cx="438" cy="95" r="30" fill="#E5E5FF"/>
<circle cx="798" cy="95" r="30" fill="#E5E5FF"/>
<circle cx="1158" cy="95" r="30" fill="#E5E5FF"/>
<circle cx="1218" cy="95" r="30" fill="#E5E5FF"/>
<circle cx="138" cy="95" r="30" fill="#E5E5FF"/>
<circle cx="498" cy="95" r="30" fill="#E5E5FF"/>
<circle cx="858" cy="95" r="30" fill="#E5E5FF"/>
<circle cx="258" cy="95" r="30" fill="#E5E5FF"/>
<circle cx="618" cy="95" r="30" fill="#E5E5FF"/>
<circle cx="978" cy="95" r="30" fill="#E5E5FF"/>
<circle cx="378" cy="95" r="30" fill="#E5E5FF"/>
<circle cx="738" cy="95" r="30" fill="#E5E5FF"/>
<circle cx="1098" cy="95" r="30" fill="#E5E5FF"/>
<circle cx="168" cy="125" r="30" fill="#CCCCFE"/>
<circle cx="528" cy="125" r="30" fill="#CCCCFE"/>
<circle cx="888" cy="125" r="30" fill="#CCCCFE"/>
<circle cx="288" cy="125" r="30" fill="#CCCCFE"/>
<circle cx="648" cy="125" r="30" fill="#CCCCFE"/>
<circle cx="1008" cy="125" r="30" fill="#CCCCFE"/>
<circle cx="408" cy="125" r="30" fill="#CCCCFE"/>
<circle cx="768" cy="125" r="30" fill="#CCCCFE"/>
<circle cx="1128" cy="125" r="30" fill="#CCCCFE"/>
<circle cx="1188" cy="125" r="30" fill="#CCCCFE"/>
<circle cx="108" cy="125" r="30" fill="#CCCCFE"/>
<circle cx="468" cy="125" r="30" fill="#CCCCFE"/>
<circle cx="828" cy="125" r="30" fill="#CCCCFE"/>
<circle cx="228" cy="125" r="30" fill="#CCCCFE"/>
<circle cx="588" cy="125" r="30" fill="#CCCCFE"/>
<circle cx="948" cy="125" r="30" fill="#CCCCFE"/>
<circle cx="348" cy="125" r="30" fill="#CCCCFE"/>
<circle cx="708" cy="125" r="30" fill="#CCCCFE"/>
<circle cx="1068" cy="125" r="30" fill="#CCCCFE"/>
<circle cx="198" cy="155" r="30" fill="#B3B2FE"/>
<circle cx="558" cy="155" r="30" fill="#B3B2FE"/>
<circle cx="918" cy="155" r="30" fill="#B3B2FE"/>
<circle cx="318" cy="155" r="30" fill="#B3B2FE"/>
<circle cx="678" cy="155" r="30" fill="#B3B2FE"/>
<circle cx="1038" cy="155" r="30" fill="#B3B2FE"/>
<circle cx="438" cy="155" r="30" fill="#B3B2FE"/>
<circle cx="798" cy="155" r="30" fill="#B3B2FE"/>
<circle cx="1158" cy="155" r="30" fill="#B3B2FE"/>
<circle cx="1218" cy="155" r="30" fill="#B3B2FE"/>
<circle cx="138" cy="155" r="30" fill="#B3B2FE"/>
<circle cx="498" cy="155" r="30" fill="#B3B2FE"/>
<circle cx="858" cy="155" r="30" fill="#B3B2FE"/>
<circle cx="258" cy="155" r="30" fill="#B3B2FE"/>
<circle cx="618" cy="155" r="30" fill="#B3B2FE"/>
<circle cx="978" cy="155" r="30" fill="#B3B2FE"/>
<circle cx="378" cy="155" r="30" fill="#B3B2FE"/>
<circle cx="738" cy="155" r="30" fill="#B3B2FE"/>
<circle cx="1098" cy="155" r="30" fill="#B3B2FE"/>
<circle cx="168" cy="185" r="30" fill="#FFFFFD"/>
<circle cx="528" cy="185" r="30" fill="#FFFFFD"/>
<circle cx="888" cy="185" r="30" fill="#FFFFFD"/>
<circle cx="288" cy="185" r="30" fill="#FFFFFD"/>
<circle cx="648" cy="185" r="30" fill="#FFFFFD"/>
<circle cx="1008" cy="185" r="30" fill="#FFFFFD"/>
<circle cx="408" cy="185" r="30" fill="#FFFFFD"/>
<circle cx="768" cy="185" r="30" fill="#FFFFFD"/>
<circle cx="1128" cy="185" r="30" fill="#FFFFFD"/>
<circle cx="1188" cy="185" r="30" fill="#FFFFFD"/>
<circle cx="108" cy="185" r="30" fill="#FFFFFD"/>
<circle cx="468" cy="185" r="30" fill="#FFFFFD"/>
<circle cx="828" cy="185" r="30" fill="#FFFFFD"/>
<circle cx="228" cy="185" r="30" fill="#FFFFFD"/>
<circle cx="588" cy="185" r="30" fill="#FFFFFD"/>
<circle cx="948" cy="185" r="30" fill="#FFFFFD"/>
<circle cx="348" cy="185" r="30" fill="#FFFFFD"/>
<circle cx="708" cy="185" r="30" fill="#FFFFFD"/>
<circle cx="1068" cy="185" r="30" fill="#FFFFFD"/>
</svg>
