<svg width="292" height="137" viewBox="0 0 292 137" fill="none" xmlns="http://www.w3.org/2000/svg">
<path d="M50 90C27.9086 90 10 72.0914 10 50C10 27.9086 27.9086 10 50 10H221.5C229.237 10 233.879 12.1965 240 16H255.579C246.448 6.1586 235.984 0 221.5 0H50C22.3858 0 0 22.3858 0 50C0 77.6142 22.3858 100 50 100H203V90H50Z" fill="#CE0B3A"/>
<mask id="path-2-outside-1_9_217" maskUnits="userSpaceOnUse" x="41.5" y="28" width="155" height="43" fill="black">
<rect fill="white" x="41.5" y="28" width="155" height="43"/>
<path d="M83.2821 46.3467L68.5621 52.7467L76.6688 66.6133L74.7488 68L64.0821 56.16L53.4154 68L51.4954 66.6133L59.6021 52.7467L44.9888 46.3467L45.7354 44.1067L61.3088 47.52L62.9088 31.6267H65.2554L66.8554 47.52L82.5354 44.1067L83.2821 46.3467ZM138.17 46.3467L123.45 52.7467L131.556 66.6133L129.636 68L118.97 56.16L108.303 68L106.383 66.6133L114.49 52.7467L99.8763 46.3467L100.623 44.1067L116.196 47.52L117.796 31.6267H120.143L121.743 47.52L137.423 44.1067L138.17 46.3467ZM193.057 46.3467L178.337 52.7467L186.444 66.6133L184.524 68L173.857 56.16L163.19 68L161.27 66.6133L169.377 52.7467L154.764 46.3467L155.51 44.1067L171.084 47.52L172.684 31.6267H175.03L176.63 47.52L192.31 44.1067L193.057 46.3467Z"/>
</mask>
<path d="M83.2821 46.3467L68.5621 52.7467L76.6688 66.6133L74.7488 68L64.0821 56.16L53.4154 68L51.4954 66.6133L59.6021 52.7467L44.9888 46.3467L45.7354 44.1067L61.3088 47.52L62.9088 31.6267H65.2554L66.8554 47.52L82.5354 44.1067L83.2821 46.3467ZM138.17 46.3467L123.45 52.7467L131.556 66.6133L129.636 68L118.97 56.16L108.303 68L106.383 66.6133L114.49 52.7467L99.8763 46.3467L100.623 44.1067L116.196 47.52L117.796 31.6267H120.143L121.743 47.52L137.423 44.1067L138.17 46.3467ZM193.057 46.3467L178.337 52.7467L186.444 66.6133L184.524 68L173.857 56.16L163.19 68L161.27 66.6133L169.377 52.7467L154.764 46.3467L155.51 44.1067L171.084 47.52L172.684 31.6267H175.03L176.63 47.52L192.31 44.1067L193.057 46.3467Z" fill="#CE0B3A"/>
<path d="M83.2821 46.3467L84.4783 49.0979C85.9036 48.4782 86.6196 46.8725 86.1281 45.398L83.2821 46.3467ZM68.5621 52.7467L67.3659 49.9955C66.5794 50.3374 65.9768 50.9997 65.7105 51.8149C65.4441 52.6301 65.5393 53.5204 65.9722 54.2608L68.5621 52.7467ZM76.6688 66.6133L78.4252 69.0454C79.6777 68.1408 80.0384 66.433 79.2586 65.0992L76.6688 66.6133ZM74.7488 68L72.5199 70.008C73.5452 71.1461 75.2633 71.3289 76.5052 70.432L74.7488 68ZM64.0821 56.16L66.311 54.152C65.7421 53.5205 64.932 53.16 64.0821 53.16C63.2321 53.16 62.4221 53.5205 61.8532 54.152L64.0821 56.16ZM53.4154 68L51.6589 70.432C52.9008 71.3289 54.619 71.1461 55.6443 70.008L53.4154 68ZM51.4954 66.6133L48.9055 65.0992C48.1258 66.433 48.4865 68.1408 49.7389 69.0454L51.4954 66.6133ZM59.6021 52.7467L62.192 54.2608C62.6241 53.5216 62.7198 52.6329 62.455 51.8187C62.1901 51.0044 61.5899 50.3422 60.8056 49.9987L59.6021 52.7467ZM44.9888 46.3467L42.1427 45.398C41.6522 46.8695 42.3644 48.4724 43.7852 49.0947L44.9888 46.3467ZM45.7354 44.1067L46.3777 41.1762C44.8793 40.8478 43.3745 41.7027 42.8894 43.158L45.7354 44.1067ZM61.3088 47.52L60.6665 50.4504C61.5024 50.6337 62.3769 50.4511 63.0698 49.9488C63.7626 49.4464 64.2079 48.672 64.2937 47.8205L61.3088 47.52ZM62.9088 31.6267V28.6267C61.3683 28.6267 60.0781 29.7934 59.9238 31.3262L62.9088 31.6267ZM65.2554 31.6267L68.2403 31.3262C68.086 29.7934 66.7959 28.6267 65.2554 28.6267V31.6267ZM66.8554 47.52L63.8705 47.8205C63.9562 48.6713 64.4008 49.4451 65.0927 49.9475C65.7846 50.4499 66.658 50.6332 67.4935 50.4513L66.8554 47.52ZM82.5354 44.1067L85.3815 43.158C84.8969 41.7042 83.3946 40.8494 81.8973 41.1753L82.5354 44.1067ZM82.0859 43.5955L67.3659 49.9955L69.7583 55.4979L84.4783 49.0979L82.0859 43.5955ZM65.9722 54.2608L74.0789 68.1274L79.2586 65.0992L71.152 51.2326L65.9722 54.2608ZM74.9123 64.1813L72.9923 65.568L76.5052 70.432L78.4252 69.0454L74.9123 64.1813ZM76.9776 65.992L66.311 54.152L61.8532 58.168L72.5199 70.008L76.9776 65.992ZM61.8532 54.152L51.1865 65.992L55.6443 70.008L66.311 58.168L61.8532 54.152ZM55.1719 65.568L53.2519 64.1813L49.7389 69.0454L51.6589 70.432L55.1719 65.568ZM54.0853 68.1274L62.192 54.2608L57.0122 51.2326L48.9055 65.0992L54.0853 68.1274ZM60.8056 49.9987L46.1923 43.5987L43.7852 49.0947L58.3986 55.4947L60.8056 49.9987ZM47.8348 47.2953L48.5815 45.0553L42.8894 43.158L42.1427 45.398L47.8348 47.2953ZM45.0931 47.0371L60.6665 50.4504L61.951 44.5896L46.3777 41.1762L45.0931 47.0371ZM64.2937 47.8205L65.8937 31.9272L59.9238 31.3262L58.3238 47.2195L64.2937 47.8205ZM62.9088 34.6267H65.2554V28.6267H62.9088V34.6267ZM62.2705 31.9272L63.8705 47.8205L69.8403 47.2195L68.2403 31.3262L62.2705 31.9272ZM67.4935 50.4513L83.1735 47.038L81.8973 41.1753L66.2173 44.5886L67.4935 50.4513ZM79.6894 45.0553L80.436 47.2953L86.1281 45.398L85.3815 43.158L79.6894 45.0553ZM138.17 46.3467L139.366 49.0979C140.791 48.4782 141.507 46.8725 141.016 45.398L138.17 46.3467ZM123.45 52.7467L122.253 49.9955C121.467 50.3374 120.864 50.9997 120.598 51.8149C120.332 52.6301 120.427 53.5204 120.86 54.2608L123.45 52.7467ZM131.556 66.6133L133.313 69.0454C134.565 68.1408 134.926 66.433 134.146 65.0992L131.556 66.6133ZM129.636 68L127.407 70.008C128.433 71.1461 130.151 71.3289 131.393 70.432L129.636 68ZM118.97 56.16L121.198 54.152C120.63 53.5205 119.82 53.16 118.97 53.16C118.12 53.16 117.31 53.5205 116.741 54.152L118.97 56.16ZM108.303 68L106.546 70.432C107.788 71.3289 109.506 71.1461 110.532 70.008L108.303 68ZM106.383 66.6133L103.793 65.0992C103.013 66.433 103.374 68.1408 104.626 69.0454L106.383 66.6133ZM114.49 52.7467L117.079 54.2608C117.512 53.5216 117.607 52.6329 117.342 51.8187C117.078 51.0044 116.477 50.3422 115.693 49.9987L114.49 52.7467ZM99.8763 46.3467L97.0302 45.398C96.5397 46.8695 97.2519 48.4724 98.6727 49.0947L99.8763 46.3467ZM100.623 44.1067L101.265 41.1762C99.7668 40.8478 98.262 41.7027 97.7769 43.158L100.623 44.1067ZM116.196 47.52L115.554 50.4504C116.39 50.6337 117.264 50.4511 117.957 49.9488C118.65 49.4464 119.095 48.672 119.181 47.8205L116.196 47.52ZM117.796 31.6267V28.6267C116.256 28.6267 114.966 29.7934 114.811 31.3262L117.796 31.6267ZM120.143 31.6267L123.128 31.3262C122.974 29.7934 121.683 28.6267 120.143 28.6267V31.6267ZM121.743 47.52L118.758 47.8205C118.844 48.6713 119.288 49.4451 119.98 49.9475C120.672 50.4499 121.546 50.6332 122.381 50.4513L121.743 47.52ZM137.423 44.1067L140.269 43.158C139.784 41.7042 138.282 40.8494 136.785 41.1753L137.423 44.1067ZM136.973 43.5955L122.253 49.9955L124.646 55.4979L139.366 49.0979L136.973 43.5955ZM120.86 54.2608L128.966 68.1274L134.146 65.0992L126.039 51.2326L120.86 54.2608ZM129.8 64.1813L127.88 65.568L131.393 70.432L133.313 69.0454L129.8 64.1813ZM131.865 65.992L121.198 54.152L116.741 58.168L127.407 70.008L131.865 65.992ZM116.741 54.152L106.074 65.992L110.532 70.008L121.198 58.168L116.741 54.152ZM110.059 65.568L108.139 64.1813L104.626 69.0454L106.546 70.432L110.059 65.568ZM108.973 68.1274L117.079 54.2608L111.9 51.2326L103.793 65.0992L108.973 68.1274ZM115.693 49.9987L101.08 43.5987L98.6727 49.0947L113.286 55.4947L115.693 49.9987ZM102.722 47.2953L103.469 45.0553L97.7769 43.158L97.0302 45.398L102.722 47.2953ZM99.9806 47.0371L115.554 50.4504L116.839 44.5896L101.265 41.1762L99.9806 47.0371ZM119.181 47.8205L120.781 31.9272L114.811 31.3262L113.211 47.2195L119.181 47.8205ZM117.796 34.6267H120.143V28.6267H117.796V34.6267ZM117.158 31.9272L118.758 47.8205L124.728 47.2195L123.128 31.3262L117.158 31.9272ZM122.381 50.4513L138.061 47.038L136.785 41.1753L121.105 44.5886L122.381 50.4513ZM134.577 45.0553L135.324 47.2953L141.016 45.398L140.269 43.158L134.577 45.0553ZM193.057 46.3467L194.253 49.0979C195.679 48.4782 196.395 46.8725 195.903 45.398L193.057 46.3467ZM178.337 52.7467L177.141 49.9955C176.354 50.3374 175.752 50.9997 175.485 51.8149C175.219 52.6301 175.314 53.5204 175.747 54.2608L178.337 52.7467ZM186.444 66.6133L188.2 69.0454C189.453 68.1408 189.813 66.433 189.034 65.0992L186.444 66.6133ZM184.524 68L182.295 70.008C183.32 71.1461 185.038 71.3289 186.28 70.432L184.524 68ZM173.857 56.16L176.086 54.152C175.517 53.5205 174.707 53.16 173.857 53.16C173.007 53.16 172.197 53.5205 171.628 54.152L173.857 56.16ZM163.19 68L161.434 70.432C162.676 71.3289 164.394 71.1461 165.419 70.008L163.19 68ZM161.27 66.6133L158.681 65.0992C157.901 66.433 158.261 68.1408 159.514 69.0454L161.27 66.6133ZM169.377 52.7467L171.967 54.2608C172.399 53.5216 172.495 52.6329 172.23 51.8187C171.965 51.0044 171.365 50.3422 170.581 49.9987L169.377 52.7467ZM154.764 46.3467L151.918 45.398C151.427 46.8695 152.139 48.4724 153.56 49.0947L154.764 46.3467ZM155.51 44.1067L156.153 41.1762C154.654 40.8478 153.149 41.7027 152.664 43.158L155.51 44.1067ZM171.084 47.52L170.441 50.4504C171.277 50.6337 172.152 50.4511 172.845 49.9488C173.538 49.4464 173.983 48.672 174.069 47.8205L171.084 47.52ZM172.684 31.6267V28.6267C171.143 28.6267 169.853 29.7934 169.699 31.3262L172.684 31.6267ZM175.03 31.6267L178.015 31.3262C177.861 29.7934 176.571 28.6267 175.03 28.6267V31.6267ZM176.63 47.52L173.646 47.8205C173.731 48.6713 174.176 49.4451 174.868 49.9475C175.56 50.4499 176.433 50.6332 177.269 50.4513L176.63 47.52ZM192.31 44.1067L195.156 43.158C194.672 41.7042 193.17 40.8494 191.672 41.1753L192.31 44.1067ZM191.861 43.5955L177.141 49.9955L179.533 55.4979L194.253 49.0979L191.861 43.5955ZM175.747 54.2608L183.854 68.1274L189.034 65.0992L180.927 51.2326L175.747 54.2608ZM184.687 64.1813L182.767 65.568L186.28 70.432L188.2 69.0454L184.687 64.1813ZM186.753 65.992L176.086 54.152L171.628 58.168L182.295 70.008L186.753 65.992ZM171.628 54.152L160.962 65.992L165.419 70.008L176.086 58.168L171.628 54.152ZM164.947 65.568L163.027 64.1813L159.514 69.0454L161.434 70.432L164.947 65.568ZM163.86 68.1274L171.967 54.2608L166.787 51.2326L158.681 65.0992L163.86 68.1274ZM170.581 49.9987L155.967 43.5987L153.56 49.0947L168.174 55.4947L170.581 49.9987ZM157.61 47.2953L158.356 45.0553L152.664 43.158L151.918 45.398L157.61 47.2953ZM154.868 47.0371L170.441 50.4504L171.726 44.5896L156.153 41.1762L154.868 47.0371ZM174.069 47.8205L175.669 31.9272L169.699 31.3262L168.099 47.2195L174.069 47.8205ZM172.684 34.6267H175.03V28.6267H172.684V34.6267ZM172.046 31.9272L173.646 47.8205L179.615 47.2195L178.015 31.3262L172.046 31.9272ZM177.269 50.4513L192.949 47.038L191.672 41.1753L175.992 44.5886L177.269 50.4513ZM189.464 45.0553L190.211 47.2953L195.903 45.398L195.156 43.158L189.464 45.0553Z" fill="#CE0B3A" mask="url(#path-2-outside-1_9_217)"/>
<mask id="path-4-inside-2_9_217" fill="white">
<rect x="215.5" y="60" width="76" height="63" rx="7"/>
</mask>
<rect x="215.5" y="60" width="76" height="63" rx="7" stroke="#CE0B3A" stroke-width="20" mask="url(#path-4-inside-2_9_217)"/>
<path d="M248.566 29H256.434C264.755 29 271.5 35.7452 271.5 44.0658V64.375H233.5V44.0658C233.5 35.7452 240.245 29 248.566 29Z" stroke="#CE0B3A" stroke-width="8"/>
</svg>
